# xmcd CD database file
#
# Track frame offsets:
#	150
#	20915
#	43613
#	66685
#	87113
#	110823
#	131618
#	147328
#	168588
#	183763
#	203178
#	225113
#	243323
#
# Disc length: 3544 seconds
#
# Revision: 1
# Processed by: cddbd v1.5.2PL0 Copyright (c) Steve Scherf et al.
# Submitted via: CDex 1.51
#
DISCID=b80dd60d
DTITLE=סאני הייז - פרפרים לבנים
DYEAR=1995
DGENRE=מזרחי
TTITLE0=פרפרים לבנים
TTITLE1=אל תלכי לי
TTITLE2=Feeling Vibratio
TTITLE3=יש לך חבר
TTITLE4=Ode to... Bob Marley
TTITLE5=נעימה - פרפרים לבנים
TTITLE6=לילות הקיץ בסיני
TTITLE7=בת הכפר
TTITLE8=עוד נשיר ביחד
TTITLE9=כיפה אדומה
TTITLE10=הפלא והאור
TTITLE11=קרן אור
TTITLE12=נעימה - אל תלכי לי
EXTD=YEAR: 1995
EXTT0=
EXTT1=
EXTT2=
EXTT3=
EXTT4=
EXTT5=
EXTT6=
EXTT7=
EXTT8=
EXTT9=
EXTT10=
EXTT11=
EXTT12=
PLAYORDER=
